<?xml version="1.0" encoding="UTF-8"?>
<svg xmlns="http://www.w3.org/2000/svg" xmlns:xlink="http://www.w3.org/1999/xlink" viewBox="0 0 48 48" width="48px" height="48px">
<g id="surface155338099">
<path style=" stroke:none;fill-rule:nonzero;fill:rgb(12.156863%,61.176473%,81.176472%);fill-opacity:1;" d="M 18.273438 32.996094 L 18.210938 33.058594 C 17.171875 34.117188 15.972656 34.679688 14.734375 34.679688 C 12.148438 34.679688 10.273438 32.738281 10.273438 30.066406 C 10.273438 27.394531 12.148438 25.453125 14.734375 25.453125 C 15.972656 25.453125 17.171875 26.015625 18.210938 27.078125 L 18.273438 27.140625 L 19.9375 25.132812 L 19.890625 25.078125 C 18.511719 23.445312 16.851562 22.648438 14.8125 22.648438 C 12.765625 22.648438 10.898438 23.335938 9.550781 24.578125 C 8.085938 25.925781 7.3125 27.820312 7.3125 30.066406 C 7.3125 32.308594 8.085938 34.210938 9.550781 35.554688 C 10.898438 36.804688 12.765625 37.488281 14.8125 37.488281 C 16.851562 37.488281 18.507812 36.691406 19.890625 35.058594 L 19.933594 35.007812 Z M 21.617188 37.214844 L 24.550781 37.214844 L 24.550781 22.882812 L 21.617188 22.882812 Z M 36.050781 34.097656 C 35.265625 34.574219 34.539062 34.816406 33.882812 34.816406 C 32.933594 34.816406 32.503906 34.3125 32.503906 33.199219 L 32.503906 25.59375 L 35.496094 25.59375 L 35.496094 22.894531 L 32.503906 22.894531 L 32.503906 18.4375 L 29.628906 19.976562 L 29.628906 22.894531 L 27.148438 22.894531 L 27.148438 25.59375 L 29.628906 25.59375 L 29.628906 33.683594 C 29.628906 35.886719 30.933594 37.394531 32.882812 37.433594 C 34.207031 37.457031 35.003906 37.066406 35.488281 36.777344 L 35.515625 36.757812 L 36.222656 33.992188 Z M 38.480469 37.214844 L 41.417969 37.214844 L 41.417969 22.882812 L 38.480469 22.882812 Z M 38.480469 37.214844 "/>
<path style=" stroke:none;fill-rule:evenodd;fill:rgb(98.823529%,76.862746%,9.803922%);fill-opacity:0.8;" d="M 43.175781 20.339844 C 40.492188 16.535156 36.027344 14.261719 31.488281 14.261719 C 26.949219 14.261719 22.484375 16.535156 19.800781 20.339844 L 19.664062 20.535156 L 23.046875 20.535156 L 23.085938 20.496094 C 25.386719 18.117188 28.394531 16.859375 31.488281 16.859375 C 34.582031 16.859375 37.585938 18.117188 39.894531 20.496094 L 39.929688 20.535156 L 43.3125 20.535156 Z M 43.175781 20.339844 "/>
</g>
</svg>

